<svg width="829" height="414" viewBox="0 0 829 414" fill="none" xmlns="http://www.w3.org/2000/svg">
<path d="M493.188 235.75H462.672V283H440.312V235.75H340.328V215.359L437.922 76.2812H462.672V214.516H493.188V235.75ZM440.312 214.516V146.172C440.312 132.766 440.781 117.625 441.719 100.75H440.594C436.094 109.75 431.875 117.203 427.938 123.109L363.672 214.516H440.312ZM649.422 179.922C649.422 215.453 643.797 241.984 632.547 259.516C621.391 277.047 604.281 285.812 581.219 285.812C559.094 285.812 542.266 276.859 530.734 258.953C519.203 240.953 513.438 214.609 513.438 179.922C513.438 144.109 519.016 117.531 530.172 100.188C541.328 82.8438 558.344 74.1719 581.219 74.1719C603.531 74.1719 620.453 83.2187 631.984 101.312C643.609 119.406 649.422 145.609 649.422 179.922ZM537.062 179.922C537.062 209.828 540.578 231.625 547.609 245.312C554.641 258.906 565.844 265.703 581.219 265.703C596.781 265.703 608.031 258.812 614.969 245.031C622 231.156 625.516 209.453 625.516 179.922C625.516 150.391 622 128.781 614.969 115.094C608.031 101.312 596.781 94.4219 581.219 94.4219C565.844 94.4219 554.641 101.219 547.609 114.812C540.578 128.312 537.062 150.016 537.062 179.922ZM822.812 235.75H792.297V283H769.938V235.75H669.953V215.359L767.547 76.2812H792.297V214.516H822.812V235.75ZM769.938 214.516V146.172C769.938 132.766 770.406 117.625 771.344 100.75H770.219C765.719 109.75 761.5 117.203 757.562 123.109L693.297 214.516H769.938Z" fill="url(#paint0_linear)"/>
<path fill-rule="evenodd" clip-rule="evenodd" d="M184.775 18.9778C188.352 32.1574 193.013 61.7823 188.257 66.4293H158.167C158.163 66.3759 158.16 66.3227 158.157 66.2696C147.005 65.0354 138.331 55.5795 138.331 44.0977V22.3083C138.331 9.98775 148.318 0 160.639 0H162.714C173.903 0 183.168 8.23698 184.775 18.9778Z" fill="#191847"/>
<path fill-rule="evenodd" clip-rule="evenodd" d="M150.016 39.9369C145.235 34.3248 141.999 27.4471 142.54 19.7405C144.098 -2.46454 175.008 2.42028 181.021 13.6275C187.033 24.8346 186.319 53.2626 178.548 55.2656C175.449 56.0644 168.847 54.1077 162.128 50.0578L166.346 79.8945H141.443L150.016 39.9369Z" fill="#D4A181"/>
<path fill-rule="evenodd" clip-rule="evenodd" d="M156.748 36.1859C157.895 48.5105 157.435 62.5848 154.016 65.9257H123.926C122.249 36.7967 138.452 48.0768 138.452 20.651C139.462 19.664 140.417 18.6871 141.361 17.8446L141.328 17.038C146.538 6.37107 153.149 1.0376 161.159 1.0376C173.174 1.0376 176.967 6.62849 180.196 11.3752C177.781 19.6605 168.411 20.889 160.084 26.0535C159.103 25.2561 157.852 24.7782 156.488 24.7782C153.337 24.7782 150.782 27.3332 150.782 30.4849C150.782 33.6367 153.337 36.1917 156.488 36.1917C156.575 36.1917 156.662 36.1898 156.748 36.1859Z" fill="#191847"/>
<path fill-rule="evenodd" clip-rule="evenodd" d="M101.4 267.79C126.292 274.753 147.767 278.234 165.827 278.234C183.886 278.234 200.661 272.873 216.15 262.151C191.792 255.005 171.732 251.432 155.97 251.432C140.208 251.432 122.018 256.885 101.4 267.79Z" fill="#1F28CF"/>
<path fill-rule="evenodd" clip-rule="evenodd" d="M187.374 288.269C187.134 287.908 186.932 287.515 186.771 287.09C183.444 278.291 130.151 183.369 124.842 166.015H184.842C188.878 179.21 207.047 262.013 209.604 278.533C217.672 304.593 234.282 388.989 236.403 394.836C238.633 400.986 226.082 407.394 222.737 399.832C217.416 387.801 204.735 354.51 199.089 334.182C193.796 315.125 189.486 297.981 187.374 288.269Z" fill="#BA8B72"/>
<path fill-rule="evenodd" clip-rule="evenodd" d="M138.286 299.858C113.921 306.016 24.8012 317.148 18.6854 318.895C12.3941 320.691 6.87788 307.723 14.6542 304.914C27.0277 300.444 61.1223 290.117 81.794 285.903C98.421 282.513 113.593 279.747 123.78 278.127C122.917 249.514 118.972 180.846 121.558 166.015H174.646C172.167 180.237 151.207 284.008 147.312 294.395C146.075 298.103 142.386 299.742 138.286 299.858Z" fill="#D4A181"/>
<path fill-rule="evenodd" clip-rule="evenodd" d="M15.2191 301.461C11.9658 300.856 9.58164 300.687 8.0666 300.954C6.22394 301.279 3.58918 302.06 0.162314 303.298C0.539232 305.435 3.92666 324.646 10.3246 360.931C15.5399 361.555 18.0605 360.219 17.8864 356.923C17.7122 353.627 17.596 350.883 17.5378 348.693L24.7564 319.8C24.8953 319.244 24.5572 318.681 24.0012 318.542C23.9917 318.539 23.9822 318.537 23.9726 318.535L19.4922 317.55C17.5717 314.808 16.4468 312.504 16.1175 310.636C15.85 309.119 16.0933 306.915 16.8475 304.026L16.8475 304.026C17.137 302.917 16.4726 301.783 15.3636 301.494C15.3158 301.481 15.2676 301.47 15.2191 301.461Z" fill="#E4E4E4"/>
<path fill-rule="evenodd" clip-rule="evenodd" d="M218.929 398.853C217.768 401.952 217.188 404.27 217.188 405.809C217.188 407.68 217.499 410.41 218.123 414C220.293 414 239.801 414 276.645 414C278.166 408.972 277.288 406.258 274.011 405.857C270.735 405.456 268.013 405.094 265.845 404.771L238.645 392.645C238.122 392.412 237.508 392.647 237.275 393.17C237.271 393.179 237.267 393.188 237.263 393.197L235.515 397.439C232.482 398.854 230.017 399.561 228.12 399.561C226.58 399.561 224.452 398.939 221.737 397.695L221.737 397.695C220.695 397.217 219.463 397.674 218.986 398.716C218.965 398.761 218.946 398.807 218.929 398.853Z" fill="#E4E4E4"/>
<path fill-rule="evenodd" clip-rule="evenodd" d="M121.729 166.015C145.124 159.322 167.259 159.322 188.135 166.015C195.399 199.153 213.047 212.305 216.15 263.112C180.872 280.641 137.293 250.61 100.977 267.705C90.6015 243.794 105.128 186.211 121.729 166.015Z" fill="#2B44FF"/>
<path fill-rule="evenodd" clip-rule="evenodd" d="M222.376 124.834L263.343 119.246C271.538 114.688 279.077 111.602 285.96 109.988C287.897 109.932 290.979 110.636 286.388 114.463C281.798 118.289 277.14 122.523 277.958 124.565C278.776 126.607 283.045 125.847 283.752 128.989C284.224 131.083 277.296 131.423 262.967 130.009L229.726 143.188L222.376 124.834ZM93.6829 134.316L116.404 134.402C91.4897 190.467 78.4993 219.822 77.4322 222.466C75.0313 228.416 80.112 237.478 82.2847 242.348C75.2083 245.514 75.9623 233.788 67.0355 237.941C58.8876 241.731 52.6895 248.6 43.2758 242.791C42.1184 242.077 40.8502 239.388 43.9145 237.287C51.5488 232.052 62.5504 222.891 64.0369 219.875C66.064 215.762 75.946 187.243 93.6829 134.316Z" fill="#D4A181"/>
<path fill-rule="evenodd" clip-rule="evenodd" d="M155.917 62.2554L173.707 63.4405C178.088 103.078 201.952 128.114 255.383 119.639L262.481 170.683C212.542 177.137 168.746 157.143 159.77 103.011C157.446 88.9973 155.612 74.4138 155.917 62.2554Z" fill="#AFB9C5"/>
<path fill-rule="evenodd" clip-rule="evenodd" d="M147.141 57.0842L174.094 63.2572C174.094 109.616 188.861 139.194 196.436 173.278H123.642C122.617 185.056 121.987 197.161 121.659 209.594H67.1533C79.5046 143.877 105.574 93.0347 145.361 57.0676H147.126L147.141 57.0842Z" fill="#C5CFD6"/>
<path fill-rule="evenodd" clip-rule="evenodd" d="M135.127 107.141C133.251 136.029 134.354 158.075 138.436 173.278H123.642C125.673 149.947 129.257 127.901 135.127 107.141V107.141Z" fill="black" fill-opacity="0.1"/>
<defs>
<linearGradient id="paint0_linear" x1="829" y1="-2.30811e-05" x2="321.919" y2="324.098" gradientUnits="userSpaceOnUse">
<stop stop-color="#FF3E3C"/>
<stop offset="0.510417" stop-color="#FF3E3C"/>
<stop offset="1" stop-color="#FF9B21"/>
</linearGradient>
</defs>
</svg>
