<svg width="64" height="100" viewBox="0 0 64 100" fill="none" xmlns="http://www.w3.org/2000/svg">
<path fill-rule="evenodd" clip-rule="evenodd" d="M30.3144 16.7414C29.2502 15.4923 28.53 13.9614 28.6503 12.2461C28.9971 7.30371 35.877 8.39097 37.2153 10.8855C38.5536 13.3799 38.3946 19.7074 36.665 20.1532C35.9752 20.331 34.5058 19.8955 33.0103 18.9941L33.949 25.6351H28.4062L30.3144 16.7414Z" fill="#B28B67"/>
<path fill-rule="evenodd" clip-rule="evenodd" d="M34.0563 8.01045C33.3258 7.89066 31.3589 7.80829 30.9961 7.80835C30.7643 7.80835 30.5131 7.86131 30.3758 7.64846C30.2634 7.47416 30.3046 7.17937 30.271 6.97711C30.2321 6.74214 30.1767 6.5102 30.1208 6.27885C29.9615 5.62053 29.7206 4.99422 29.3836 4.40619C28.7512 3.30298 27.8247 2.43882 26.6551 1.93598C25.3636 1.38075 23.9021 1.25362 22.5128 1.36624C21.0261 1.48673 19.6803 1.9775 18.2767 2.43936C16.939 2.87946 15.538 3.05269 14.139 2.83777C12.7294 2.62126 11.6644 1.85728 10.4755 1.13217C9.25832 0.389841 7.86737 -0.0956731 6.42849 0.015935C5.08536 0.120152 3.84744 0.674736 2.7368 1.41558C1.69767 2.10873 0.840246 2.94268 0.356169 4.1164C-0.16459 5.37897 -0.164111 6.76484 0.692247 7.88066C1.9335 9.49805 4.23785 9.9163 6.15497 9.87472C7.26386 9.85074 8.35293 9.64831 9.39985 9.28009C10.7961 8.789 12.0026 7.95664 13.3088 7.2813C13.9218 6.9644 14.5554 6.70412 15.2195 6.51664C15.864 6.33463 16.4988 6.25115 17.0823 6.64048C17.6996 7.05235 18.2528 7.45693 18.9589 7.71476C19.6364 7.96212 20.354 8.10047 21.0757 8.09489C22.4801 8.08404 23.8644 7.64649 25.2283 7.35341C26.3405 7.11445 27.5306 6.87629 28.6645 7.106C29.1376 7.20187 29.8288 7.39977 29.9997 7.89151C27.1234 8.41281 25.9937 11.97 26.8046 14.5813C27.2422 15.9908 29.8729 17.6384 30.8958 16.8974C31.5438 16.428 31.1504 15.8117 30.8958 15.4049C30.4082 14.6258 30.2414 13.6251 31.1436 13.0827C31.9218 12.6149 32.7401 13.7258 32.7556 13.7246C32.9695 13.7077 34.8177 12.6625 36.091 11.1372C37.3472 11.2117 37.5378 10.3834 37.2379 9.70598C36.9379 9.02859 35.0657 8.17608 34.0563 8.01045Z" fill="#191847"/>
<path fill-rule="evenodd" clip-rule="evenodd" d="M23.9364 44.8037C24.3528 50.4872 51.1795 67.2202 51.336 67.6897C51.4056 67.8984 48.6222 74.4944 42.9859 87.4777L45.331 88.3889C53.9761 74.6387 58.0767 67.031 57.6326 65.5659C56.9969 63.4682 50.0587 56.5676 36.8182 44.8642L23.9364 44.8037Z" fill="#B28B67"/>
<path fill-rule="evenodd" clip-rule="evenodd" d="M43.6029 84.5454L47.4315 85.9391C55.5049 76.83 58.6694 69.3142 58.0924 65.4847C57.7077 62.9318 50.7935 56.0427 37.3497 44.8176L23.6617 44.8176C24.1287 57.9797 48.9937 67.7397 49.3263 68.3006C49.6589 68.8615 46.3859 74.3549 43.6029 84.5454Z" fill="#2F3676"/>
<path fill-rule="evenodd" clip-rule="evenodd" d="M42.123 87.0299C41.6443 87.5897 41.3464 88.0304 41.2293 88.3522C41.0869 88.7436 40.9442 89.3384 40.8013 90.1366C41.2553 90.3019 45.3354 91.7869 53.0416 94.5917C53.7424 93.6559 53.7654 93.0214 53.1106 92.6881C52.4558 92.3548 51.9141 92.0719 51.4854 91.8394L46.7194 87.2324C46.6277 87.1438 46.4815 87.1463 46.3928 87.238C46.3913 87.2395 46.3898 87.2411 46.3883 87.2427L45.6998 87.9967C44.9576 88.0618 44.3882 88.0222 43.9916 87.8778C43.6693 87.7605 43.2716 87.4684 42.7985 87.0014L42.7985 87.0014C42.617 86.8222 42.3245 86.8241 42.1453 87.0056C42.1376 87.0135 42.1302 87.0216 42.123 87.0299Z" fill="#E4E4E4"/>
<path fill-rule="evenodd" clip-rule="evenodd" d="M27.0208 44.8037L15.0703 73.4935L3.32471 97.7484H6.09586L36.4143 44.8037H27.0208Z" fill="#997659"/>
<path fill-rule="evenodd" clip-rule="evenodd" d="M3.15904 96.6286C2.90067 97.3184 2.77148 97.8344 2.77148 98.1768C2.77148 98.5933 2.84086 99.201 2.97962 100C3.46275 100 7.80469 100 16.0054 100C16.3439 98.881 16.1485 98.2768 15.4192 98.1876C14.69 98.0984 14.0841 98.0178 13.6017 97.9459L7.54746 95.2469C7.43097 95.1949 7.29443 95.2473 7.24249 95.3638C7.2416 95.3658 7.24074 95.3678 7.23991 95.3698L6.85075 96.3138C6.17561 96.6288 5.627 96.7863 5.2049 96.7863C4.86195 96.7863 4.38834 96.6478 3.78407 96.3708L3.78407 96.3708C3.55217 96.2645 3.27801 96.3663 3.17171 96.5982C3.16712 96.6082 3.1629 96.6183 3.15904 96.6286Z" fill="#E4E4E4"/>
<path fill-rule="evenodd" clip-rule="evenodd" d="M4.38574 92.7097L10.5433 93.8644C15.3043 86.8649 35.2292 58.1644 37.4138 44.8037H23.7057C16.4103 54.4621 8.92395 85.5944 4.38574 92.7097Z" fill="#5C63AB"/>
<path fill-rule="evenodd" clip-rule="evenodd" d="M47.8061 38.4797L56.1744 34.8047C57.6403 33.3439 59.0559 32.2337 60.4211 31.4739C60.8293 31.344 61.5267 31.3047 60.7826 32.3915C60.0385 33.4784 59.3047 34.655 59.602 35.0359C59.8993 35.4168 60.7606 34.9964 61.1009 35.6158C61.3277 36.0287 59.8759 36.5227 56.7455 37.0977L50.4782 41.9029L47.8061 38.4797ZM13.9743 39.492L18.7068 40.4309C13.9475 49.3005 11.3951 54.0014 11.0498 54.5336C10.2727 55.731 10.9977 57.9255 11.2655 59.0811C9.58542 59.4722 10.248 56.9435 8.12186 57.4714C6.1812 57.9534 4.53576 59.1901 2.72618 57.5221C2.5037 57.3171 2.34084 56.6761 3.09938 56.3473C4.98917 55.5283 7.78118 53.9946 8.23391 53.3991C8.85128 52.5871 10.7647 47.9514 13.9743 39.492Z" fill="#B28B67"/>
<path fill-rule="evenodd" clip-rule="evenodd" d="M31.5693 21.7858L33.5664 21.4432C37.9161 25.6627 39.6911 35.7997 42.5899 37.1415C45.3306 38.4102 49.2157 37.1825 53.8337 35.5249L55.248 38.6848C51.052 43.2242 42.113 47.0594 38.4897 44.87C32.6967 41.3696 31.3594 28.867 31.5693 21.7858Z" fill="#DB2721"/>
<path fill-rule="evenodd" clip-rule="evenodd" d="M22.8638 46.8823C30.8711 46.8823 36.7611 46.8823 40.5338 46.8823C41.3413 46.8823 41.1891 45.7164 41.0724 45.128C39.7253 38.3381 34.4668 31.0189 34.4668 21.3536L29.37 20.5543C25.1542 27.3346 23.6963 35.6824 22.8638 46.8823Z" fill="#DDE3E9"/>
<path fill-rule="evenodd" clip-rule="evenodd" d="M21.1012 40.0077C17.499 46.5053 14.4712 51.1833 12.0178 54.0416L8.31396 53.3162C10.6998 38.5198 17.6088 27.5992 29.041 20.5543H29.961L31.0591 20.5543C35.6347 36.1518 36.8962 46.5444 34.8434 51.7322H18.9375C19.1892 47.9362 19.996 43.9218 21.1012 40.0077H21.1012Z" fill="#FF4133"/>
</svg>
