<svg width="77" height="100" viewBox="0 0 77 100" fill="none" xmlns="http://www.w3.org/2000/svg">
<path fill-rule="evenodd" clip-rule="evenodd" d="M45.0692 10.7323C44.4549 9.08316 44.2906 7.27626 45.041 5.59176C47.2033 0.738254 53.7378 4.35747 54.1715 7.36218C54.6053 10.3669 52.1241 16.6851 50.2176 16.5C49.4572 16.4262 48.1362 15.4483 46.9597 13.9913L45.4698 21.0282L39.8841 18.9951L45.0692 10.7323Z" fill="#B28B67"/>
<path fill-rule="evenodd" clip-rule="evenodd" d="M53.5163 5.24637C53.4161 5.12344 53.2071 4.86494 53.0927 4.75721C53.0658 4.73148 52.8994 4.4894 52.8926 4.48921C52.7016 4.48471 52.1319 4.51731 52.0229 4.68502C52.0113 4.69651 52.0002 4.70718 51.9898 4.71628C51.8738 4.81777 51.7624 4.92451 51.6534 5.0339C51.4141 5.27405 51.1885 5.53392 50.9689 5.79331C50.5412 6.29847 50.1368 6.8275 49.747 7.36339C49.3502 7.90891 48.9773 8.47118 48.5883 9.02239C48.0285 9.81555 47.4096 10.5627 46.8516 11.3561C46.4953 11.8627 46.204 12.4005 46.0334 12.9932C46.0313 13.0003 46.029 13.0073 46.027 13.0146C46.0262 13.0175 46.0256 13.0205 46.0248 13.0235C45.9992 13.1149 45.9764 13.2075 45.9568 13.3016C45.9402 13.3821 45.9236 13.4629 45.9077 13.544C46.2825 13.19 46.6219 12.7733 46.9626 12.3845C46.996 12.3464 47.0286 12.3077 47.061 12.2688C47.1511 12.1976 47.2422 12.1275 47.3337 12.0579C47.911 11.6194 48.489 11.1835 49.0549 10.7291C50.0728 9.91183 51.0928 9.07022 52.1975 8.38163C52.5237 8.17828 52.8536 7.98118 53.1778 7.77449C53.3623 7.65687 53.5446 7.53534 53.724 7.40941C53.8522 7.31936 54.372 7.03192 54.3313 6.73076C54.3104 6.57667 53.7761 5.56529 53.5163 5.24637Z" fill="#2C2C2C"/>
<path fill-rule="evenodd" clip-rule="evenodd" d="M53.1252 4.79305C53.2344 4.88015 53.2681 4.59921 53.1807 4.46423C52.776 3.83893 50.6973 2.90886 48.6995 2.61839C47.3611 2.4238 45.6799 2.53998 44.3852 3.00475C43.2181 3.42376 42.1671 4.39395 41.4299 5.43252C40.6557 6.52306 40.1455 7.76801 39.8788 9.07816C39.8202 9.36594 39.8131 9.65794 39.7647 9.94286C39.7102 10.2637 39.6329 10.5636 39.6244 10.892C39.6192 11.093 39.6572 11.3058 39.6428 11.5047C39.6264 11.7316 39.5215 11.9089 39.4028 12.1025C39.2092 12.4182 38.9993 12.7271 38.7584 13.0081C38.3967 13.4301 38.007 13.8069 37.6825 14.2634C37.2507 14.8707 35.6729 16.7843 36.0237 17.5902L46.8503 21.5307C46.8484 20.6879 46.3486 19.5148 46.4727 18.6584C46.5458 18.154 46.8721 17.1129 46.8754 17.072C47.2436 15.3014 47.0595 14.3248 46.8673 13.9248C46.675 13.5247 46.3102 13.2904 46.3817 13.0301C46.6777 11.9536 47.4582 11.1031 48.1183 10.2381C48.9051 9.20725 49.6052 8.11219 50.4018 7.08935C50.7545 6.63642 52.5581 4.34082 53.1252 4.79305Z" fill="#8991DC"/>
<path fill-rule="evenodd" clip-rule="evenodd" d="M48.8917 4.61442C48.0119 5.76123 47.6724 6.42076 47.116 8.22271L46.9157 8.14982C47.1495 6.3433 48.0549 4.89205 48.6399 4.5228L48.8917 4.61442ZM42.1976 5.96399C42.2865 8.087 42.2366 9.3034 43.8175 11.5706L43.6116 11.6257C41.9376 9.66278 41.8423 8.01342 42.0096 5.98265L42.1976 5.96399ZM46.0074 5.22309C45.3992 7.96921 44.9553 9.50267 45.7123 13.0242L45.4994 13.013C44.5551 9.84303 45.0028 7.69921 45.8234 5.17241L46.0074 5.22309ZM41.1858 12.283L41.4222 12.1435C43.4033 13.6577 42.6279 15.013 44.9112 17.5023L44.624 17.5593C42.5284 15.644 42.7464 13.2514 41.1858 12.283Z" fill="black" fill-opacity="0.2"/>
<path fill-rule="evenodd" clip-rule="evenodd" d="M32.2769 40.8058L50.6807 71.5737L64.4783 97.5853H67.4501L44.3321 40.8058L32.2769 40.8058Z" fill="#997659"/>
<path fill-rule="evenodd" clip-rule="evenodd" d="M62.6607 96.3845C62.3837 97.1242 62.2451 97.6776 62.2451 98.0448C62.2451 98.4915 62.3195 99.1432 62.4683 100C62.9865 100 67.6429 100 76.4376 100C76.8007 98.7999 76.5911 98.152 75.809 98.0564C75.0269 97.9607 74.3771 97.8743 73.8598 97.7971L67.367 94.9026C67.2421 94.8469 67.0957 94.9031 67.04 95.028C67.039 95.0301 67.0381 95.0323 67.0372 95.0344L66.6198 96.0468C65.8958 96.3847 65.3075 96.5536 64.8548 96.5536C64.487 96.5536 63.9791 96.405 63.331 96.108L63.331 96.108C63.0824 95.9939 62.7883 96.1031 62.6743 96.3518C62.6694 96.3625 62.6649 96.3734 62.6607 96.3845Z" fill="#E4E4E4"/>
<path fill-rule="evenodd" clip-rule="evenodd" d="M60.646 93.4201L66.3772 91.6863C63.8662 84.1798 60.7886 75.9191 57.1444 66.9043C53.5003 57.8896 49.5866 49.19 45.4033 40.8058H29.2163C33.8672 51.4115 38.7977 61.0481 44.0079 69.7157C49.2181 78.3832 54.7641 86.2847 60.646 93.4201Z" fill="#DB2721"/>
<path fill-rule="evenodd" clip-rule="evenodd" d="M31.0671 40.8058C29.3302 51.6178 25.98 65.4315 25.6639 65.8578C25.4531 66.1419 17.8651 68.6846 2.8999 73.4857L3.54186 76.1064C21.3878 73.5315 30.7911 71.5338 31.7518 70.1133C33.1927 67.9825 40.3876 51.1495 43.1743 40.8058H31.0671Z" fill="#B28B67"/>
<path fill-rule="evenodd" clip-rule="evenodd" d="M8.16064 71.2204L9.29139 75.4411C22.6391 76.6118 30.8176 75.7659 33.8267 72.9034C36.8359 70.041 40.2655 59.3418 44.1154 40.8058H28.6802C26.2409 55.9843 24.8772 63.8921 24.5891 64.5293C24.3009 65.1664 18.8248 67.3968 8.16064 71.2204Z" fill="#FF4133"/>
<path fill-rule="evenodd" clip-rule="evenodd" d="M3.63266 72.394C2.8561 72.2496 2.287 72.2092 1.92536 72.273C1.48552 72.3506 0.856596 72.537 0.0385984 72.8324C0.128569 73.3426 0.937151 77.9283 2.46434 86.5894C3.70925 86.7385 4.31092 86.4197 4.26935 85.6328C4.22777 84.846 4.20004 84.1911 4.18615 83.6683L5.90923 76.7715C5.94239 76.6388 5.86168 76.5043 5.72898 76.4711C5.7267 76.4706 5.72443 76.47 5.72214 76.4695L4.65266 76.2343C4.19424 75.58 3.92573 75.0299 3.84713 74.5841C3.78326 74.2219 3.84134 73.6959 4.02137 73.0061L4.02138 73.0061C4.09046 72.7414 3.93188 72.4708 3.66717 72.4017C3.65576 72.3987 3.64425 72.3962 3.63266 72.394Z" fill="#E4E4E4"/>
<path fill-rule="evenodd" clip-rule="evenodd" d="M53.7827 40.802L59.398 48.8363C61.244 50.0791 62.7096 51.3398 63.7948 52.6182C64.0167 53.0201 64.2028 53.7435 62.9013 53.1822C61.5998 52.6209 60.2056 52.0886 59.8652 52.4771C59.5249 52.8656 60.1473 53.684 59.5642 54.1656C59.1754 54.4867 58.3527 53.0639 57.0963 49.8972L50.724 44.2936L53.7827 40.802ZM21.6695 29.3718L25.758 31.1236C18.562 39.7202 14.7233 44.2577 14.2417 44.7361C13.1583 45.8126 13.4355 48.2674 13.4615 49.5346C11.6058 49.5662 12.8636 47.0735 10.5079 47.1481C8.35769 47.2162 6.3511 48.1389 4.81518 45.9908C4.62635 45.7267 4.59686 45.0206 5.46841 44.8473C7.63975 44.4157 10.9194 43.44 11.528 42.9196C12.358 42.2099 15.7385 37.694 21.6695 29.3718Z" fill="#B28B67"/>
<path fill-rule="evenodd" clip-rule="evenodd" d="M44.0495 16.9457L46.916 16.7877C48.1183 26.5989 51.1539 36.5934 58.122 46.2155L54.91 49.3929C48.3071 42.7235 41.8487 37.1865 40.6801 29.5205C40.2878 26.9475 43.2294 19.6767 44.0495 16.9457Z" fill="#C5CFD6"/>
<path fill-rule="evenodd" clip-rule="evenodd" d="M28.3225 39.4376C35.6582 42.2536 41.5995 43.8456 46.1465 44.2135C46.7099 44.2591 47.0335 43.3903 46.9465 42.7186C45.5929 32.258 45.1363 23.3247 46.8898 16.7807C46.0829 16.9457 44.8232 16.6654 43.1109 15.9396C36.5226 21.4022 32.2515 28.551 28.3225 39.4376Z" fill="#323337"/>
<path fill-rule="evenodd" clip-rule="evenodd" d="M42.0737 15.0558L44.0662 15.5897C43.8053 18.4195 35.4519 55.4481 36.7581 68.6431L12.3148 62.0935C15.7865 51.2566 23.5005 39.1884 30.6922 29.287C26.0375 31.681 21.2314 36.5631 16.2741 43.9332L12.0078 41.5411C19.3093 27.9088 29.1729 19.094 41.5987 15.0967C41.6357 15.0503 41.6726 15.0041 41.7092 14.9582L41.8856 15.0054C41.9615 14.9815 42.0376 14.9578 42.1138 14.9342L42.0737 15.0558V15.0558Z" fill="#DDE3E9"/>
</svg>
