<svg width="93" height="100" viewBox="0 0 93 100" fill="none" xmlns="http://www.w3.org/2000/svg">
<path fill-rule="evenodd" clip-rule="evenodd" d="M53.5353 10.991C54.9232 9.36187 55.8626 7.36533 55.7056 5.12816C55.2533 -1.31777 46.2804 0.100252 44.535 3.3536C42.7895 6.60695 42.9969 14.8593 45.2528 15.4408C46.1524 15.6727 48.0688 15.1047 50.0193 13.929L48.795 22.5904H56.0239L53.5353 10.991Z" fill="#B28B67"/>
<path fill-rule="evenodd" clip-rule="evenodd" d="M51.2862 7.49007C51.5226 7.3276 51.805 7.22892 52.1084 7.22892C52.9401 7.22892 53.6144 7.97061 53.6144 8.73494C53.6144 9.53008 53.2389 10.1449 52.7027 10.4057C52.9891 10.9656 53.2771 11.372 53.6144 11.4458C54.9162 11.3141 56.6265 8.07847 56.6265 5.42169C56.6265 2.51371 54.3126 0 50 0C46.1237 0 44.654 1.59826 44.5783 3.01205C46.2393 3.46856 49.1418 3.64434 53.3132 3.61446V3.91566L49.6988 4.21687L49.0963 6.0241C50.0548 5.95255 50.7396 6.60993 51.2862 7.49007Z" fill="#191847"/>
<path d="M59.0362 100C46.2272 100 35.8435 90.0882 35.8435 77.8615C35.8435 65.6347 46.2272 55.7229 59.0362 55.7229C71.8452 55.7229 82.229 65.6347 82.229 77.8615C82.229 90.0882 71.8452 100 59.0362 100Z" fill="#C5CFD6"/>
<path fill-rule="evenodd" clip-rule="evenodd" d="M15.2082 96.5843C19.0675 88.0427 21.8584 80.6049 22.9787 76.6808C24.8969 69.9616 26.3562 64.0492 26.725 61.8412C27.6045 56.576 19.9594 56.2694 18.9489 58.8861C17.4194 62.8466 14.7493 75.8592 11.5409 95.5143L15.2082 96.5843ZM59.9735 69.7782C56.4326 68.3786 44.0327 63.9985 38.0522 62.7594C36.3336 62.4034 34.6679 62.0726 33.1019 61.7736C28.4471 60.885 26.0355 69.2824 30.5186 69.9276C41.6834 71.5345 57.5113 73.1938 58.8659 73.38C60.7643 73.641 62.1989 70.6578 59.9735 69.7782Z" fill="#B28B67"/>
<path fill-rule="evenodd" clip-rule="evenodd" d="M30.2447 59.4627L49.3975 49.7128V47.5903H47.1197C28.5903 52.3119 19.1217 55.3378 18.7141 56.668C18.7097 56.6823 18.7057 56.6966 18.7021 56.711C18.6927 56.7232 18.6836 56.7355 18.6746 56.7479C15.0024 61.7982 12.8032 86.4539 12.0814 88.3L19.118 89.3498C21.8097 79.3684 30.4216 72.4151 30.1928 60.4605C30.2546 60.1098 30.2702 59.7773 30.2447 59.4627Z" fill="#1F28CF"/>
<path fill-rule="evenodd" clip-rule="evenodd" d="M47.8061 65.2531C49.5586 64.9023 51.1724 64.5892 52.5533 64.347C61.473 62.7825 64.074 58.0079 62.5361 47.5903H46.1017C43.4171 48.3615 29.4655 54.2123 22.2268 57.3242C17.4358 59.3838 18.9461 66.8085 21.6592 68.7408C21.6739 68.8593 21.7228 68.9398 21.8097 68.9759C36.4044 75.0249 47.9502 71.851 51.8071 72.8651L53.5911 67.2374L47.8061 65.2531Z" fill="#2B44FF"/>
<path fill-rule="evenodd" clip-rule="evenodd" d="M58.7625 68.8837C59.7187 68.9752 60.3975 69.1188 60.7989 69.3146C61.2871 69.5527 61.9598 69.9814 62.8171 70.6009C62.5409 71.1672 60.0584 76.257 55.3698 85.8701C53.8645 85.6271 53.268 85.0526 53.5804 84.1467C53.8928 83.2408 54.1447 82.4846 54.3362 81.878L54.6338 73.2379C54.6395 73.0717 54.7789 72.9415 54.9452 72.9473C54.948 72.9474 54.9508 72.9475 54.9537 72.9477L56.2828 73.0312C57.038 72.4199 57.5363 71.8668 57.7776 71.372C57.9737 70.97 58.0821 70.3357 58.1029 69.469L58.1029 69.469C58.1109 69.1363 58.387 68.8732 58.7196 68.8811C58.7339 68.8815 58.7482 68.8823 58.7625 68.8837Z" fill="#E4E4E4"/>
<path fill-rule="evenodd" clip-rule="evenodd" d="M16.9643 95.0005C17.3012 95.9001 17.4697 96.5731 17.4697 97.0197C17.4697 97.5629 17.3792 98.3555 17.1983 99.3975C16.5682 99.3975 10.9053 99.3975 0.209771 99.3975C-0.231699 97.9381 0.0231428 97.1501 0.974299 97.0338C1.92545 96.9174 2.7156 96.8123 3.34472 96.7185L11.2408 93.1984C11.3927 93.1307 11.5708 93.1989 11.6386 93.3509C11.6397 93.3535 11.6408 93.3561 11.6419 93.3587L12.1495 94.5899C13.03 95.0008 13.7455 95.2062 14.296 95.2062C14.7433 95.2062 15.361 95.0255 16.1491 94.6643L16.1491 94.6642C16.4515 94.5256 16.8091 94.6584 16.9478 94.9608C16.9537 94.9739 16.9592 94.9871 16.9643 95.0005Z" fill="#E4E4E4"/>
<path fill-rule="evenodd" clip-rule="evenodd" d="M31.3582 41.6059L21.7503 48.6612C19.1444 49.3643 16.9673 50.2392 15.219 51.2857C14.806 51.662 14.3068 52.4242 16.0196 52.2924C17.7324 52.1607 19.5399 52.0992 19.7763 52.6834C20.0126 53.2676 18.9761 53.9663 19.4538 54.7545C19.7723 55.28 21.277 53.9624 23.9678 50.8015L33.4821 46.8562L31.3582 41.6059ZM74.8373 38.6672L69.5327 39.6277C75.6893 51.8448 78.9868 58.3045 79.4252 59.0067C80.4115 60.5867 79.4158 63.4335 79.0402 64.9352C81.2228 65.4837 80.4161 62.1692 83.1774 62.9065C85.6979 63.5795 87.816 65.2306 90.2144 63.0955C90.5093 62.833 90.7363 62.0004 89.7544 61.5542C87.308 60.4425 83.701 58.3779 83.124 57.5907C82.3372 56.5172 79.575 50.2094 74.8373 38.6672Z" fill="#B28B67"/>
<path fill-rule="evenodd" clip-rule="evenodd" d="M29.1199 42.3728C27.8837 42.2841 26.539 42.4889 25.0974 42.9746C24.388 43.2137 24.0067 43.9825 24.2457 44.6919C24.3845 45.1039 24.7021 45.4052 25.0829 45.5387C24.807 45.7399 24.5287 45.94 24.248 46.139L26.6718 51.0872C36.8715 46.0017 46.4582 42.1674 50.8267 33.7715C52.2928 30.9537 51.7966 21.382 51.9365 17.8999L48.7151 16.5787C44.2246 25.8609 38.1474 34.766 29.1199 42.3728Z" fill="#69A1AC"/>
<path fill-rule="evenodd" clip-rule="evenodd" d="M63.2529 50.274C53.7836 51.3143 46.3301 51.3143 40.8926 50.274C40.2189 50.1451 40.2485 47.2411 40.5609 46.4479C45.426 34.0969 48.6263 25.0554 48.6263 16.4767C49.519 16.943 51.0813 17.0129 53.3132 16.6863C59.3113 25.527 62.0684 35.6706 63.2529 50.274Z" fill="#191847"/>
<path fill-rule="evenodd" clip-rule="evenodd" d="M65.0119 51.7343C65.3335 51.4317 65.5012 50.9781 65.4188 50.5108L65.2618 49.6209C65.1555 49.0179 64.6657 48.5787 64.0875 48.51C63.9864 48.0581 63.8992 47.6093 63.8272 47.1637C63.2192 43.3998 64.2581 39.7092 64.2093 36.085C69.0527 40.2173 73.3976 47.3528 77.244 57.4913L82.9328 55.8173C82.7158 55.0109 82.4909 54.2144 82.2583 53.4278C82.9149 53.0548 83.6822 51.3452 83.13 51.0591C82.5597 50.7636 81.9556 50.5557 81.3193 50.4333C76.1032 34.7226 67.5734 23.2328 55.7297 15.9639L54.6818 15.9639L52.3041 15.9639C53.3127 29.3014 39.3821 58.4202 44.2191 83.2886C53.1597 85.2852 65.9236 79.0731 78.348 84.0362C77.8857 74.0214 68.625 62.2563 65.0119 51.7343V51.7343Z" fill="#89C5CC"/>
<path fill-rule="evenodd" clip-rule="evenodd" d="M54.4859 16.265L56.0399 21.0438L52.9105 24.6262L55.7387 27.4414L48.8966 39.1566L57.2637 27.4648L54.4859 24.6262L57.2637 21.4603L54.4859 16.265Z" fill="black" fill-opacity="0.1"/>
<path fill-rule="evenodd" clip-rule="evenodd" d="M50.9031 43.6747C51.5685 43.6747 52.1079 43.1352 52.1079 42.4698C52.1079 41.8044 51.5685 41.265 50.9031 41.265C50.2377 41.265 49.6983 41.8044 49.6983 42.4698C49.6983 43.1352 50.2377 43.6747 50.9031 43.6747ZM49.3971 50.6024C50.0625 50.6024 50.6019 50.0629 50.6019 49.3975C50.6019 48.7321 50.0625 48.1927 49.3971 48.1927C48.7317 48.1927 48.1922 48.7321 48.1922 49.3975C48.1922 50.0629 48.7317 50.6024 49.3971 50.6024ZM49.0959 57.5301C49.7613 57.5301 50.3007 56.9907 50.3007 56.3253C50.3007 55.6599 49.7613 55.1204 49.0959 55.1204C48.4305 55.1204 47.891 55.6599 47.891 56.3253C47.891 56.9907 48.4305 57.5301 49.0959 57.5301Z" fill="black" fill-opacity="0.4"/>
</svg>
