<svg width="82" height="100" viewBox="0 0 82 100" fill="none" xmlns="http://www.w3.org/2000/svg">
<path fill-rule="evenodd" clip-rule="evenodd" d="M48.3887 11.188C49.8023 9.52876 50.759 7.49535 50.5992 5.21686C50.1385 -1.3481 40.9999 0.096105 39.2222 3.40954C37.4446 6.72297 37.6558 15.1278 39.9532 15.72C40.8695 15.9561 42.8213 15.3776 44.8078 14.1802L43.5609 23.0016H50.9233L48.3887 11.188Z" fill="#B28B67"/>
<path fill-rule="evenodd" clip-rule="evenodd" d="M44.4403 5.94179C44.1585 9.86754 43.413 11.8304 42.2038 11.8304C40.39 11.8304 38.851 10.6789 38.0552 10.6789C37.475 10.6789 37.6045 11.4049 37.9891 11.9432C38.3064 12.3874 39.8515 12.8154 39.8515 13.5039C39.8515 14.1925 38.6307 13.6598 38.6307 14.0681C38.6307 14.7436 38.4162 16.0136 39.5885 16.0136C40.7749 16.0136 44.1766 15.5812 44.7596 13.8204C45.1358 12.6839 45.3791 10.3291 45.4894 6.75573C45.5614 6.74718 45.6346 6.74278 45.7089 6.74278C46.7254 6.74278 47.5495 7.56685 47.5495 8.58338C47.5495 9.09943 47.3371 9.56588 46.995 9.90009C47.4209 10.5012 47.8982 11.1292 48.4451 11.7772C50.4998 10.5444 52.0246 6.93573 50.0157 3.46904C49.4605 1.77077 48.2035 0.863657 46.719 0.442456C45.5164 -0.0605775 44.268 -0.117295 43.2142 0.184269C41.1485 0.361455 39.3039 0.991356 38.7811 1.36544C38.7811 3.32115 39.16 3.9014 42.3968 3.85026C43.1921 4.27028 43.8035 4.99355 44.4403 5.94179Z" fill="#191847"/>
<path fill-rule="evenodd" clip-rule="evenodd" d="M14.4537 54.0142C12.2512 51.027 6.74559 53.0045 6.7489 55.4774C6.75761 61.9703 12.6828 92.7946 12.9922 94.7407C13.3015 96.6868 16.6156 97.3234 16.8086 94.8918C17.1156 91.0226 17.6861 77.6098 17.1153 71.3698C16.9486 69.5472 16.7728 67.7854 16.5957 66.1349C19.7098 71.7292 24.4451 79.6364 30.8016 89.8563L34.3345 88.2422C31.5602 79.1017 29.2853 72.6488 27.5099 68.8834C24.4699 62.4362 21.6194 56.915 20.4197 54.9702C18.835 52.4012 16.2646 52.7423 14.4537 54.0142Z" fill="#B28B67"/>
<path fill-rule="evenodd" clip-rule="evenodd" d="M34.0821 83.1662L21.9563 54.4411C19.0514 49.7683 10.9069 55.392 11.8976 58.1022C14.1466 64.2552 25.5846 84.1751 26.2547 86.0083L34.0821 83.1662Z" fill="#1F28CF"/>
<path fill-rule="evenodd" clip-rule="evenodd" d="M6.44198 57.7202C6.44198 65.8622 10.0108 85.0009 10.0133 86.7938L18.6586 86.5022C17.1474 69.8623 16.5101 61.4859 16.7467 61.3732C17.2792 61.1195 38.5721 64.3202 44.9582 64.5619C54.167 64.9104 57.9765 59.2609 58.2856 48.5399H40.4479C25.195 50.3606 15.1701 51.6269 10.3734 52.3389C7.29298 52.7961 6.44198 55.4773 6.44198 57.7202Z" fill="#2B44FF"/>
<path fill-rule="evenodd" clip-rule="evenodd" d="M25.5969 81.6082L23.6172 82.1018C20.987 82.7576 19.3864 85.4214 20.0422 88.0517L20.6359 90.4329C21.2917 93.0632 23.9555 94.6638 26.5858 94.008L28.5654 93.5144C31.1957 92.8586 32.7963 90.1947 32.1405 87.5645L31.5468 85.1833C30.891 82.553 28.2271 80.9524 25.5969 81.6082ZM27.6477 83.9525C28.3053 83.7885 28.9712 84.1887 29.1352 84.8463L30.1694 88.9942C30.3333 89.6518 29.9332 90.3178 29.2756 90.4817L24.535 91.6637C23.8774 91.8276 23.2114 91.4275 23.0475 90.7699L22.0133 86.622C21.8493 85.9644 22.2495 85.2984 22.907 85.1345L27.6477 83.9525Z" fill="#C5CFD6"/>
<path fill-rule="evenodd" clip-rule="evenodd" d="M17.2777 90.3068C17.6209 91.2229 17.7925 91.9084 17.7925 92.3633C17.7925 92.9164 17.7003 93.7237 17.516 94.785C16.8743 94.785 11.1069 94.785 0.213778 94.785C-0.235846 93.2985 0.0237028 92.4961 0.992424 92.3775C1.96115 92.259 2.76588 92.152 3.40662 92.0565L11.4485 88.4714C11.6033 88.4024 11.7846 88.4719 11.8536 88.6266C11.8548 88.6293 11.856 88.6319 11.8571 88.6346L12.374 89.8886C13.2708 90.307 13.9995 90.5162 14.5602 90.5162C15.0157 90.5162 15.6448 90.3322 16.4475 89.9643L16.4475 89.9643C16.7555 89.8231 17.1197 89.9583 17.2609 90.2663C17.267 90.2796 17.2726 90.2931 17.2777 90.3068Z" fill="#E4E4E4"/>
<path d="M2.30037 94.785H16.4117C17.0046 94.785 17.4854 95.2657 17.4854 95.8587C17.4854 96.4517 17.0046 96.9324 16.4117 96.9324H2.30037C1.70739 96.9324 1.22668 96.4517 1.22668 95.8587C1.22668 95.2657 1.70739 94.785 2.30037 94.785Z" fill="#2F3676"/>
<path fill-rule="evenodd" clip-rule="evenodd" d="M59.2058 50.3036H26.3817C24.6874 50.3036 23.314 51.677 23.314 53.3713V68.4029H61.0464C61.7241 68.4029 62.2734 67.8535 62.2734 67.1758V53.3713C62.2734 51.677 60.9 50.3036 59.2058 50.3036Z" fill="#2F3676"/>
<path fill-rule="evenodd" clip-rule="evenodd" d="M26.3818 50.3036H25.7089C24.2065 50.3036 22.9252 51.3917 22.6817 52.8742L15.9517 93.8645H19.2298" fill="#2F3676"/>
<path d="M17.4855 100C14.4359 100 11.9637 97.5278 11.9637 94.4782C11.9637 91.4286 14.4359 88.9564 17.4855 88.9564C20.5351 88.9564 23.0073 91.4286 23.0073 94.4782C23.0073 97.5278 20.5351 100 17.4855 100Z" fill="#191847"/>
<path fill-rule="evenodd" clip-rule="evenodd" d="M58.2858 99.3864C71.1619 99.3864 81.6001 88.9483 81.6001 76.0721C81.6001 63.196 71.1619 52.7578 58.2858 52.7578C45.4096 52.7578 34.9715 63.196 34.9715 76.0721C34.9715 88.9483 45.4096 99.3864 58.2858 99.3864ZM58.2858 95.0917C47.7816 95.0917 39.2662 86.5763 39.2662 76.0721C39.2662 65.5679 47.7816 57.0526 58.2858 57.0526C68.79 57.0526 77.3054 65.5679 77.3054 76.0721C77.3054 86.5763 68.79 95.0917 58.2858 95.0917Z" fill="#191847"/>
<path d="M57.059 55.8254H59.5132V96.3187H57.059V55.8254Z" fill="#191847"/>
<path d="M43.5354 62.1894L44.4031 61.3218C44.6427 61.0822 45.0311 61.0822 45.2707 61.3218L73.0362 89.0872C73.2758 89.3268 73.2758 89.7152 73.0362 89.9548L72.1685 90.8225C71.9289 91.0621 71.5404 91.0621 71.3008 90.8225L43.5354 63.0571C43.2958 62.8175 43.2958 62.429 43.5354 62.1894Z" fill="#191847"/>
<path d="M38.0391 76.6856V75.4585C38.0391 75.1197 38.3138 74.845 38.6526 74.845H77.9188C78.2577 74.845 78.5323 75.1197 78.5323 75.4585V76.6856C78.5323 77.0244 78.2577 77.2991 77.9188 77.2991H38.6526C38.3138 77.2991 38.0391 77.0244 38.0391 76.6856Z" fill="#191847"/>
<path d="M44.4026 90.8225L43.5349 89.9548C43.2953 89.7152 43.2953 89.3268 43.5349 89.0872L71.3003 61.3218C71.5399 61.0822 71.9284 61.0822 72.168 61.3218L73.0357 62.1894C73.2753 62.429 73.2753 62.8175 73.0356 63.0571L45.2702 90.8225C45.0306 91.0621 44.6422 91.0621 44.4026 90.8225Z" fill="#191847"/>
<path fill-rule="evenodd" clip-rule="evenodd" d="M27.3696 44.54L17.5843 51.7256C14.9303 52.4418 12.713 53.3328 10.9323 54.3986C10.5117 54.7819 10.0033 55.5581 11.7477 55.424C13.4922 55.2898 15.3331 55.2272 15.5738 55.8222C15.8145 56.4172 14.7588 57.1287 15.2454 57.9315C15.5698 58.4667 17.1022 57.1247 19.8427 53.9055L29.5328 49.8873L27.3696 44.54ZM64.9404 44.788L58.5298 44.8132C62.4881 57.5912 64.6249 64.3711 64.9404 65.153C65.6503 66.9122 64.1481 69.5913 63.5058 71.0311C65.5979 71.9673 65.375 68.5002 68.0142 69.7281C70.4232 70.8488 72.2557 72.8795 75.0389 71.1622C75.381 70.9511 75.756 70.1561 74.85 69.5349C72.5929 67.9872 69.3403 65.2785 68.9008 64.3869C68.3015 63.171 66.9813 56.6381 64.9404 44.788Z" fill="#B28B67"/>
<path fill-rule="evenodd" clip-rule="evenodd" d="M46.7227 17.8883L44.0701 17.4333C34.228 25.9355 30.1855 42.2692 18.1214 50.9218L21.0251 54.5211C41.954 51.9298 47.1414 32.0065 46.7227 17.8883Z" fill="#E87613"/>
<path fill-rule="evenodd" clip-rule="evenodd" d="M58.2861 51.2242C47.65 51.2242 39.8262 51.2242 34.8149 51.2242C33.7424 51.2242 33.9445 49.6755 34.0995 48.894C35.8889 39.8749 42.8737 30.1528 42.8737 17.3143L49.6439 16.2527C55.2438 25.2589 57.1803 36.3473 58.2861 51.2242Z" fill="#DDE3E9"/>
<path fill-rule="evenodd" clip-rule="evenodd" d="M58.0976 25.1052C59.0809 24.8226 59.8595 24.1634 60.4336 23.1276C62.9081 18.6625 62.0144 16.2042 59.37 15.3961C56.7255 14.5881 54.3672 16.2526 50.1538 16.2526C49.9246 16.2526 49.7147 16.2669 49.5241 16.2957L47.4047 16.4166C41.3238 37.0254 39.6468 50.7752 42.3735 57.6661H60.8472C61.9417 60.2184 62.9891 62.3658 63.9893 64.1083H69.0231C69.4968 48.7905 65.855 35.7895 58.0976 25.1052Z" fill="#FF9B21"/>
<path fill-rule="evenodd" clip-rule="evenodd" d="M56.8239 47.082C56.2429 51.9432 55.2986 55.4713 53.991 57.6662H60.8467C59.5699 54.6891 58.229 51.161 56.8239 47.082V47.082Z" fill="black" fill-opacity="0.1"/>
</svg>
