<svg width="60" height="100" viewBox="0 0 60 100" fill="none" xmlns="http://www.w3.org/2000/svg">
<path fill-rule="evenodd" clip-rule="evenodd" d="M29.6482 9.1869C28.4874 7.82443 27.7018 6.1547 27.8331 4.28372C28.2113 -1.1071 35.7155 0.0788115 37.1753 2.79963C38.635 5.52045 38.4615 12.422 36.575 12.9083C35.8226 13.1023 34.2199 12.6272 32.5886 11.644L33.6125 18.8876H27.5669L29.6482 9.1869Z" fill="#B28B67"/>
<path fill-rule="evenodd" clip-rule="evenodd" d="M32.8911 4.8791C33.1225 8.10273 33.7347 9.71454 34.7276 9.71454C36.217 9.71454 37.4807 8.76899 38.1342 8.76899C38.6106 8.76899 38.5043 9.36517 38.1885 9.80719C37.928 10.1719 36.6592 10.5234 36.6592 11.0888C36.6592 11.6541 37.6616 11.2167 37.6616 11.5521C37.6616 12.1067 37.8378 13.1496 36.8751 13.1496C35.9009 13.1496 33.1076 12.7945 32.6289 11.3486C32.3199 10.4154 32.1202 8.4817 32.0296 5.54746C31.9705 5.54044 31.9104 5.53683 31.8494 5.53683C31.0147 5.53683 30.338 6.21351 30.338 7.04824C30.338 7.47199 30.5124 7.85502 30.7933 8.12946C30.4436 8.62308 30.0516 9.13874 29.6025 9.67084C27.9153 8.65857 26.6633 5.69527 28.3128 2.8486C28.7687 1.45407 29.8009 0.709192 31.02 0.363323C32.0074 -0.0497432 33.0325 -0.0963169 33.8979 0.151312C35.5941 0.296809 37.1088 0.814051 37.5381 1.12123C37.5381 2.72716 37.227 3.20363 34.5691 3.16164C33.916 3.50654 33.414 4.10045 32.8911 4.8791Z" fill="#191847"/>
<path fill-rule="evenodd" clip-rule="evenodd" d="M25.5518 39.7954L34.6844 71.8441L41.3478 95.4657H46.2077L39.127 39.7954H25.5518Z" fill="#191847"/>
<path fill-rule="evenodd" clip-rule="evenodd" d="M23.1092 39.7954C22.8979 56.3137 22.1776 65.3232 21.9558 66.8239C21.734 68.3247 18.3804 77.872 11.895 95.4657H16.9296C25.186 78.5875 29.795 69.0403 30.7565 66.8239C31.7179 64.6076 34.6851 55.5981 39.1542 39.7954H23.1092Z" fill="#2F3676"/>
<path fill-rule="evenodd" clip-rule="evenodd" d="M11.4453 99.9999L11.6972 94.71H16.9872C19.4955 96.4733 22.7702 97.9007 26.8113 98.9923V99.9999H17.2391L13.9643 99.4961V99.9999H11.4453Z" fill="#191847"/>
<path fill-rule="evenodd" clip-rule="evenodd" d="M40.666 99.9999L40.9179 94.71H46.2079C48.7162 96.4733 51.9909 97.9007 56.032 98.9923V99.9999H46.4598L43.185 99.4961V99.9999H40.666Z" fill="#191847"/>
<path fill-rule="evenodd" clip-rule="evenodd" d="M46.802 35.6668L54.4061 42.1134C56.5391 42.852 58.3044 43.7089 59.702 44.684C60.0245 45.022 60.3965 45.687 58.9753 45.4772C57.554 45.2674 56.0496 45.1106 55.8184 45.5842C55.5871 46.0578 56.4111 46.7011 55.9665 47.3309C55.6702 47.7507 54.4917 46.5636 52.4313 43.7696L44.7238 39.9231L46.802 35.6668ZM12.3692 32.8772L16.8308 33.5251C12.0416 43.916 9.4741 49.4112 9.1282 50.011C8.34995 51.3603 9.26523 53.7106 9.62304 54.9548C7.81478 55.4769 8.39228 52.6831 6.10586 53.38C4.01892 54.016 2.29675 55.4578 0.229836 53.7433C-0.0242797 53.5325 -0.238341 52.8432 0.569355 52.4416C2.58162 51.4411 5.53609 49.6102 5.99535 48.9354C6.62164 48.0152 8.74624 42.6625 12.3692 32.8772Z" fill="#B28B67"/>
<path fill-rule="evenodd" clip-rule="evenodd" d="M31.0168 14.6888L33.7814 13.7746C37.5316 23.1429 43.1246 32.2072 52.4693 39.8634L50.1585 43.8502C41.9458 39.0124 34.1715 35.2543 31.0168 27.995C29.958 25.5586 30.9304 17.6021 31.0168 14.6888Z" fill="#C5CFD6"/>
<path fill-rule="evenodd" clip-rule="evenodd" d="M21.5215 41.055C29.4409 41.8946 35.6743 41.8946 40.2217 41.055C40.7851 40.9509 40.874 40.0076 40.6127 39.3675C36.544 29.3981 33.7539 20.6992 33.7539 13.7747C33.0073 14.151 31.7008 14.2074 29.8342 13.9439C24.8179 21.0798 22.5121 29.2675 21.5215 41.055Z" fill="#323337"/>
<path fill-rule="evenodd" clip-rule="evenodd" d="M28.587 13.3457H30.6775C31.1643 16.2086 32.6996 54.9757 37.4391 67.6573H11.7942C12.3501 56.0399 16.7359 42.0846 21.1786 30.4066C17.2501 34.0016 13.8261 40.0929 10.9066 48.6807L6.10303 47.4476C9.67464 32.0573 17.0179 20.7453 28.1328 13.5118C28.1568 13.4562 28.1808 13.4008 28.2046 13.3457H28.3896C28.4577 13.302 28.526 13.2585 28.5943 13.2151L28.587 13.3457V13.3457Z" fill="#DDE3E9"/>
</svg>
