<svg width="568" height="485" viewBox="0 0 568 485" fill="none" xmlns="http://www.w3.org/2000/svg">
<path fill-rule="evenodd" clip-rule="evenodd" d="M131.417 39.7613C126.612 34.1206 123.359 27.2078 123.903 19.4617C125.469 -2.85673 156.537 2.05304 162.58 13.3175C168.623 24.5819 167.905 53.1551 160.095 55.1684C156.98 55.9713 150.344 54.0045 143.591 49.9339L147.83 79.9231H122.801L131.417 39.7613Z" fill="#B28B67"/>
<path fill-rule="evenodd" clip-rule="evenodd" d="M151.541 14.9512C148.145 16.8512 145.727 20.4114 142.818 25.0813C142.109 24.8027 141.337 24.6497 140.53 24.6497C137.074 24.6497 134.272 27.4513 134.272 30.9071C134.272 32.6615 134.994 34.2472 136.157 35.3834C134.709 37.4271 133.087 39.562 131.227 41.7649C124.289 37.6019 119.128 25.4688 125.753 13.7559C131.453 -9.70591 163.753 4.85659 169.967 0.899656C171.326 9.41355 166.945 16.2785 151.541 14.9512Z" fill="#191847"/>
<path fill-rule="evenodd" clip-rule="evenodd" d="M121.792 170.462L172.98 300.018L207.311 409.546H220.868L168.382 170.462L121.792 170.462Z" fill="#997659"/>
<path fill-rule="evenodd" clip-rule="evenodd" d="M111.485 170.462C110.94 215.989 102.991 277.283 101.721 280.121C100.875 282.013 71.6462 306.072 14.0364 352.299L23.3736 362.291C91.348 322.658 126.908 300.198 130.053 294.912C134.772 286.982 150.133 214.017 162.466 170.462H111.485Z" fill="#B28B67"/>
<path fill-rule="evenodd" clip-rule="evenodd" d="M12.7874 348.964C9.65148 350.072 7.49128 351.123 6.30677 352.117C4.86611 353.326 2.96523 355.33 0.604109 358.129C2.00646 359.8 14.6096 374.82 38.4136 403.189C43.2673 401.111 44.79 398.682 42.9817 395.9C41.1735 393.118 39.6937 390.789 38.5422 388.911L30.3053 360.134C30.1468 359.58 29.5695 359.259 29.0157 359.418C29.0063 359.421 28.9968 359.423 28.9874 359.426L24.5922 360.82C21.5429 359.399 19.4056 357.959 18.1804 356.498C17.1849 355.312 16.2893 353.272 15.4936 350.377L15.4936 350.377C15.1882 349.267 14.0402 348.614 12.9294 348.919C12.8816 348.932 12.8342 348.947 12.7874 348.964Z" fill="#E4E4E4"/>
<path fill-rule="evenodd" clip-rule="evenodd" d="M201.76 404.49C200.593 407.605 200.01 409.935 200.01 411.481C200.01 413.362 200.323 416.106 200.95 419.714C203.131 419.714 222.738 419.714 259.771 419.714C261.299 414.661 260.417 411.933 257.124 411.53C253.83 411.127 251.095 410.763 248.916 410.438L221.577 398.25C221.051 398.016 220.434 398.252 220.2 398.778C220.196 398.787 220.192 398.796 220.188 398.805L218.431 403.068C215.382 404.491 212.905 405.202 210.998 405.202C209.45 405.202 207.311 404.577 204.582 403.326L204.582 403.326C203.535 402.846 202.297 403.305 201.817 404.352C201.796 404.398 201.777 404.443 201.76 404.49Z" fill="#E4E4E4"/>
<path fill-rule="evenodd" clip-rule="evenodd" d="M156.208 398.265L220.664 391.27L172.895 170.462H115.164L156.208 398.265Z" fill="#69A1AC"/>
<path fill-rule="evenodd" clip-rule="evenodd" d="M27.3689 336.179L69.6479 386.223C114.18 337.586 140.142 305.851 147.534 291.017C154.926 276.183 161.572 235.998 167.47 170.462H102.476C99.2543 228.117 97.0824 258.287 95.9607 260.97C94.839 263.653 71.9751 288.722 27.3689 336.179Z" fill="#89C5CC"/>
<path fill-rule="evenodd" clip-rule="evenodd" d="M215.887 157.856L246.537 187.563C255.455 191.342 262.762 195.515 268.458 200.083C269.738 201.618 271.133 204.559 265.106 203.243C259.079 201.927 252.681 200.811 251.548 202.759C250.415 204.706 253.753 207.69 251.659 210.239C250.264 211.938 245.57 206.533 237.579 194.026L205.707 175.356L215.887 157.856ZM66.0112 130.969L89.7032 131.058C71.6586 189.143 62.0799 219.556 60.9672 222.296C58.4636 228.46 63.7616 237.849 66.0272 242.894C58.6482 246.175 59.4344 234.025 50.126 238.328C41.6298 242.255 35.1667 249.371 25.3505 243.353C24.1436 242.614 22.8211 239.828 26.0164 237.651C33.9772 232.228 45.4492 222.736 46.9992 219.611C49.1129 215.351 55.4503 185.803 66.0112 130.969Z" fill="#B28B67"/>
<path fill-rule="evenodd" clip-rule="evenodd" d="M138.205 64.1939L147.561 62.5995C162.299 114.362 238.023 149.645 242.672 168.996C244.377 176.092 239.237 179.679 241.892 181.84L229.731 190.685C227.672 188.298 223.277 192.665 214.1 189.61C204.923 186.556 138.205 125.485 138.205 64.1939Z" fill="#DB2721"/>
<path fill-rule="evenodd" clip-rule="evenodd" d="M153.943 71.0755C152.864 139.605 192.736 157.086 183.855 184.577C176.521 207.279 106.322 231.684 94.1747 209.43C89.2575 200.423 87.0266 189.528 86.7735 177.684C83.6688 186.783 81.2134 194.617 79.4072 201.185C76.2912 212.515 64.2113 214.316 64.2113 218.681L48.2961 214.316C49.3756 208.387 41.8728 205.499 43.8845 192.251C52.8981 132.893 77.1159 89.8668 116.538 63.1714L116.955 57.2484C117.12 54.9519 119.112 53.2204 121.409 53.3762L150.862 55.4225C153.161 55.5784 154.895 57.5711 154.735 59.8694C154.735 59.8707 154.735 59.8719 154.731 59.8729L153.943 71.0755Z" fill="#FF4133"/>
<path fill-rule="evenodd" clip-rule="evenodd" d="M476.738 191.49C481.346 186.081 484.464 179.453 483.943 172.025C482.442 150.625 452.651 155.333 446.857 166.134C441.062 176.935 441.75 204.333 449.24 206.263C452.226 207.033 458.589 205.147 465.065 201.244L461 230H485L476.738 191.49Z" fill="#915B3C"/>
<path fill-rule="evenodd" clip-rule="evenodd" d="M478.582 196.308C481.594 182.906 490.175 173.771 488.865 167.782C487.991 163.789 485.662 161.305 481.879 160.332C479.922 152.416 473.61 149.048 462.944 150.23C446.945 152.004 437.181 158.648 441.398 173.268C445.274 173.268 449.954 171.866 456.424 174.268C458.478 175.03 459.946 177.393 460.83 181.358H463.754C466.592 176.653 469.391 174.924 472.149 176.171C474.908 177.418 475.535 180.447 474.03 185.259L475.471 196.308H478.582Z" fill="#191847"/>
<path fill-rule="evenodd" clip-rule="evenodd" d="M552 355H437C428.163 355 421 362.163 421 371V463C421 471.837 428.163 479 437 479H552C560.837 479 568 471.837 568 463V371C568 362.163 560.837 355 552 355ZM536 383C538.209 383 540 384.791 540 387V447C540 449.209 538.209 451 536 451H453C450.791 451 449 449.209 449 447V387C449 384.791 450.791 383 453 383H536Z" fill="#C5CFD6"/>
<path fill-rule="evenodd" clip-rule="evenodd" d="M321.841 474C341.557 449.924 354.897 432.075 361.862 420.454C373.787 400.555 383.547 382.848 386.627 376.084C393.972 359.955 369.718 352.403 364.229 359.926C355.921 371.312 338.178 407.143 311 467.417L321.841 474Z" fill="#B28B67"/>
<path fill-rule="evenodd" clip-rule="evenodd" d="M362.242 467L398.935 374.637C406.783 357.8 368.884 346.732 363.117 354.568C350.023 372.357 318.901 442.534 315 447.834L362.242 467Z" fill="#2F3676"/>
<path fill-rule="evenodd" clip-rule="evenodd" d="M459.967 448.477C452.819 438.051 426.821 402.974 412.661 388.461C408.592 384.291 404.621 380.288 400.866 376.557C389.704 365.47 367.476 384.106 378.618 394.205C406.365 419.355 446.849 453.307 450.231 456.334C454.972 460.577 464.459 455.029 459.967 448.477Z" fill="#915B3C"/>
<path fill-rule="evenodd" clip-rule="evenodd" d="M458.296 443.767C460.758 445.794 462.359 447.45 463.101 448.734C464.002 450.295 465.058 452.725 466.267 456.021C464.456 457.067 448.174 466.467 417.422 484.222C413.73 480.758 413.155 478.07 415.696 476.156C418.238 474.243 420.335 472.629 421.988 471.315L438.848 448.087C439.172 447.64 439.798 447.54 440.245 447.865C440.252 447.87 440.26 447.876 440.267 447.882L443.77 450.579C446.984 450.299 449.382 449.702 450.965 448.788C452.251 448.045 453.727 446.5 455.394 444.153L455.394 444.153C456.033 443.253 457.281 443.041 458.182 443.68C458.221 443.708 458.259 443.737 458.296 443.767Z" fill="#E4E4E4"/>
<path fill-rule="evenodd" clip-rule="evenodd" d="M330.322 470.402C331.441 473.388 332 475.623 332 477.106C332 478.909 331.7 481.54 331.099 485C329.007 485 310.206 485 274.697 485C273.231 480.155 274.077 477.539 277.235 477.152C280.393 476.766 283.016 476.417 285.105 476.106L311.32 464.419C311.824 464.194 312.416 464.421 312.641 464.925C312.644 464.934 312.648 464.942 312.652 464.951L314.337 469.039C317.26 470.403 319.636 471.085 321.463 471.085C322.948 471.085 324.999 470.485 327.616 469.286L327.616 469.285C328.62 468.825 329.807 469.266 330.267 470.27C330.287 470.313 330.305 470.357 330.322 470.402Z" fill="#E4E4E4"/>
<path fill-rule="evenodd" clip-rule="evenodd" d="M412.138 379.25C442.635 374.282 463.062 370.884 473.42 369.058C502.943 363.852 511.552 347.965 506.462 313.302H452.066C444.867 315.381 414.79 328.237 361.833 351.872C352.305 356.602 354.079 370.548 355.821 375.142C355.892 375.329 371.954 402.853 404.008 457.713L448.506 429.366L412.054 382.59C411.092 380.651 411.12 379.538 412.138 379.25Z" fill="#5C63AB"/>
<path fill-rule="evenodd" clip-rule="evenodd" d="M408.219 300.212L376.32 323.635C367.669 325.97 360.441 328.874 354.636 332.349C353.265 333.598 351.608 336.128 357.295 335.691C362.981 335.254 368.982 335.05 369.767 336.989C370.551 338.929 367.11 341.248 368.696 343.865C369.753 345.61 374.749 341.235 383.682 330.741L415.27 317.643L408.219 300.212ZM530.692 301.02L509.795 301.102C522.698 342.756 529.664 364.857 530.692 367.406C533.006 373.14 528.109 381.874 526.015 386.567C532.835 389.619 532.109 378.317 540.712 382.32C548.565 385.973 554.538 392.593 563.611 386.995C564.726 386.306 565.949 383.715 562.995 381.69C555.638 376.645 545.035 367.815 543.602 364.908C541.648 360.945 537.345 339.649 530.692 301.02Z" fill="#915B3C"/>
<path fill-rule="evenodd" clip-rule="evenodd" d="M471.305 213.332L462.658 211.849C430.574 239.564 417.397 292.809 378.07 321.015L387.536 332.748C455.76 324.301 472.67 259.355 471.305 213.332Z" fill="#E87613"/>
<path fill-rule="evenodd" clip-rule="evenodd" d="M509 322C474.328 322 448.824 322 432.489 322C428.992 322 429.651 316.952 430.157 314.404C435.989 285.004 458.759 253.312 458.759 211.461L480.828 208C499.083 237.358 505.395 273.505 509 322Z" fill="#DDE3E9"/>
<path fill-rule="evenodd" clip-rule="evenodd" d="M508.385 236.858C511.59 235.937 514.129 233.788 516 230.411C524.066 215.856 521.153 207.842 512.533 205.208C503.912 202.574 496.225 208 482.49 208C481.743 208 481.059 208.047 480.437 208.141L473.528 208.535C453.706 275.715 448.239 320.537 457.128 343H517.348C520.916 351.32 524.33 358.32 527.591 364H544C545.544 314.067 533.673 271.686 508.385 236.858Z" fill="#FF9B21"/>
<path fill-rule="evenodd" clip-rule="evenodd" d="M504.235 308.498C502.341 324.344 499.263 335.845 495 343H517.348C513.186 333.295 508.815 321.794 504.235 308.498Z" fill="black" fill-opacity="0.1"/>
</svg>
